<?xml version="1.0" encoding="UTF-8" standalone="no"?>
<!-- Generator: Adobe Illustrator 19.0.0, SVG Export Plug-In . SVG Version: 6.00 Build 0)  -->

<svg
   xmlns:dc="http://purl.org/dc/elements/1.1/"
   xmlns:cc="http://creativecommons.org/ns#"
   xmlns:rdf="http://www.w3.org/1999/02/22-rdf-syntax-ns#"
   xmlns:svg="http://www.w3.org/2000/svg"
   xmlns="http://www.w3.org/2000/svg"
   xmlns:sodipodi="http://sodipodi.sourceforge.net/DTD/sodipodi-0.dtd"
   xmlns:inkscape="http://www.inkscape.org/namespaces/inkscape"
   version="1.1"
   id="Layer_1"
   x="0px"
   y="0px"
   viewBox="0 0 24.999998 34.514885"
   xml:space="preserve"
   sodipodi:docname="marker.svg"
   width="24.999998"
   height="34.514885"
   inkscape:version="0.92.3 (3ce5693, 2018-03-11)"><metadata
   id="metadata3923"><rdf:RDF><cc:Work
       rdf:about=""><dc:format>image/svg+xml</dc:format><dc:type
         rdf:resource="http://purl.org/dc/dcmitype/StillImage" /><dc:title></dc:title></cc:Work></rdf:RDF></metadata><defs
   id="defs3921" /><sodipodi:namedview
   pagecolor="#ffffff"
   bordercolor="#666666"
   borderopacity="1"
   objecttolerance="10"
   gridtolerance="10"
   guidetolerance="10"
   inkscape:pageopacity="0"
   inkscape:pageshadow="2"
   inkscape:window-width="1366"
   inkscape:window-height="744"
   id="namedview3919"
   showgrid="false"
   fit-margin-top="0"
   fit-margin-left="0"
   fit-margin-right="0"
   fit-margin-bottom="0"
   inkscape:zoom="0.4609375"
   inkscape:cx="185.427"
   inkscape:cy="255.99938"
   inkscape:window-x="0"
   inkscape:window-y="24"
   inkscape:window-maximized="1"
   inkscape:current-layer="Layer_1" />
<g
   id="g3886"
   transform="matrix(0.06741197,0,0,0.06741197,-4.757465,0)">
	<g
   id="g3884">
		<path
   d="M 256,0 C 153.755,0 70.573,83.182 70.573,185.426 c 0,126.888 165.939,313.167 173.004,321.035 6.636,7.391 18.222,7.378 24.846,0 7.065,-7.868 173.004,-194.147 173.004,-321.035 C 441.425,83.182 358.244,0 256,0 Z m 0,278.719 c -51.442,0 -93.292,-41.851 -93.292,-93.293 0,-51.442 41.851,-93.292 93.292,-93.292 51.441,0 93.291,41.851 93.291,93.293 0,51.442 -41.85,93.292 -93.291,93.292 z"
   id="path3882"
   inkscape:connector-curvature="0" />
	</g>
</g>
<g
   id="g3888"
   transform="matrix(0.06741197,0,0,0.06741197,-4.757465,0)">
</g>
<g
   id="g3890"
   transform="matrix(0.06741197,0,0,0.06741197,-4.757465,0)">
</g>
<g
   id="g3892"
   transform="matrix(0.06741197,0,0,0.06741197,-4.757465,0)">
</g>
<g
   id="g3894"
   transform="matrix(0.06741197,0,0,0.06741197,-4.757465,0)">
</g>
<g
   id="g3896"
   transform="matrix(0.06741197,0,0,0.06741197,-4.757465,0)">
</g>
<g
   id="g3898"
   transform="matrix(0.06741197,0,0,0.06741197,-4.757465,0)">
</g>
<g
   id="g3900"
   transform="matrix(0.06741197,0,0,0.06741197,-4.757465,0)">
</g>
<g
   id="g3902"
   transform="matrix(0.06741197,0,0,0.06741197,-4.757465,0)">
</g>
<g
   id="g3904"
   transform="matrix(0.06741197,0,0,0.06741197,-4.757465,0)">
</g>
<g
   id="g3906"
   transform="matrix(0.06741197,0,0,0.06741197,-4.757465,0)">
</g>
<g
   id="g3908"
   transform="matrix(0.06741197,0,0,0.06741197,-4.757465,0)">
</g>
<g
   id="g3910"
   transform="matrix(0.06741197,0,0,0.06741197,-4.757465,0)">
</g>
<g
   id="g3912"
   transform="matrix(0.06741197,0,0,0.06741197,-4.757465,0)">
</g>
<g
   id="g3914"
   transform="matrix(0.06741197,0,0,0.06741197,-4.757465,0)">
</g>
<g
   id="g3916"
   transform="matrix(0.06741197,0,0,0.06741197,-4.757465,0)">
</g>
</svg>