<?xml version="1.0" encoding="utf-8"?><svg xmlns="http://www.w3.org/2000/svg" xmlns:xlink="http://www.w3.org/1999/xlink"><symbol viewBox="0 0 416 416" id="bus" xmlns="http://www.w3.org/2000/svg"><path d="M328 0H88C66 0 48 18 48 40v288c0 12.4 6.8 22.8 16.4 30 0 .4-.4 1.2-.4 2v28c0 15.6 12.4 28 28 28h8c15.6 0 28-12.4 28-28v-20h160v20c0 15.6 12.4 28 28 28h8c15.6 0 28-12.4 28-28v-28c9.6-7.2 16-18.8 16-32V40c0-22-18-40-40-40zM112 388c0 6.8-5.2 12-12 12h-8c-6.8 0-12-5.2-12-12v-22c4 1.2 8 2 12 2h20v20zm224 0c0 6.8-5.2 12-12 12h-8c-6.8 0-12-5.2-12-12v-20h24c2.8 0 5.6-.4 8-.8V388zm16-60c0 13.2-10.8 24-24 24H92c-12.8 0-28-10.8-28-24v-72h288v72zm0-88H64V80h288v160zm0-176H64V40c0-13.2 10.8-24 24-24h240c13.2 0 24 10.8 24 24v24z"/><path d="M192 32h-52c-4.4 0-8 3.6-8 8s3.6 8 8 8h52c4.4 0 8-3.6 8-8s-3.6-8-8-8zm48 0h-12c-4.4 0-8 3.6-8 8s3.6 8 8 8h12c4.4 0 8-3.6 8-8s-3.6-8-8-8zM108 324c13.2 0 24-10.8 24-24s-10.8-24-24-24-24 10.8-24 24 10.8 24 24 24zm0-32c4.4 0 8 3.6 8 8s-3.6 8-8 8-8-3.6-8-8 3.6-8 8-8zm200 32c13.2 0 24-10.8 24-24s-10.8-24-24-24-24 10.8-24 24 10.8 24 24 24zm0-32c4.4 0 8 3.6 8 8s-3.6 8-8 8-8-3.6-8-8 3.6-8 8-8z"/></symbol><symbol viewBox="0 0 512 512" id="case" xmlns="http://www.w3.org/2000/svg"><path d="M444.254 117.659H67.746C30.391 117.659 0 148.049 0 185.405v235.318c0 37.356 30.391 67.746 67.746 67.746h376.508c37.355 0 67.746-30.39 67.746-67.746V185.405c0-37.355-30.39-67.746-67.746-67.746zm26.382 303.063c0 14.547-11.835 26.381-26.381 26.381H67.746c-14.547 0-26.381-11.835-26.381-26.381V185.405c0-14.547 11.835-26.381 26.381-26.381h376.508c14.547 0 26.381 11.835 26.381 26.381v235.317z"/><path d="M303.064 23.532h-94.127c-37.355 0-67.746 30.391-67.746 67.746v376.508c0 11.423 9.26 20.682 20.682 20.682 11.422 0 20.682-9.259 20.682-20.682V91.278c0-14.547 11.835-26.381 26.381-26.381h94.127c14.547 0 26.381 11.835 26.381 26.381v376.508c0 11.423 9.259 20.682 20.682 20.682 11.423 0 20.682-9.259 20.682-20.682V91.278c.001-37.355-30.389-67.746-67.744-67.746z"/></symbol><symbol viewBox="0 0 512 512" id="menu" xmlns="http://www.w3.org/2000/svg"><path d="M491.318 235.318H20.682C9.26 235.318 0 244.577 0 256s9.26 20.682 20.682 20.682h470.636c11.423 0 20.682-9.259 20.682-20.682 0-11.422-9.259-20.682-20.682-20.682zm0-156.879H20.682C9.26 78.439 0 87.699 0 99.121c0 11.422 9.26 20.682 20.682 20.682h470.636c11.423 0 20.682-9.26 20.682-20.682 0-11.422-9.259-20.682-20.682-20.682zm0 313.758H20.682C9.26 392.197 0 401.456 0 412.879s9.26 20.682 20.682 20.682h470.636c11.423 0 20.682-9.259 20.682-20.682s-9.259-20.682-20.682-20.682z"/></symbol><symbol viewBox="0 0 129 129" id="next" xmlns="http://www.w3.org/2000/svg"><path d="M40.4 121.3c-.8.8-1.8 1.2-2.9 1.2s-2.1-.4-2.9-1.2c-1.6-1.6-1.6-4.2 0-5.8l51-51-51-51c-1.6-1.6-1.6-4.2 0-5.8 1.6-1.6 4.2-1.6 5.8 0l53.9 53.9c1.6 1.6 1.6 4.2 0 5.8l-53.9 53.9z"/></symbol><symbol viewBox="0 0 129 129" id="prev" xmlns="http://www.w3.org/2000/svg"><path d="M88.6 121.3c.8.8 1.8 1.2 2.9 1.2s2.1-.4 2.9-1.2c1.6-1.6 1.6-4.2 0-5.8l-51-51 51-51c1.6-1.6 1.6-4.2 0-5.8s-4.2-1.6-5.8 0l-54 53.9c-1.6 1.6-1.6 4.2 0 5.8l54 53.9z"/></symbol><symbol viewBox="0 0 512 512" id="search" xmlns="http://www.w3.org/2000/svg"><path d="M370.068 63.494C329.123 22.549 274.686 0 216.781 0S104.438 22.549 63.494 63.494C22.549 104.438 0 158.876 0 216.78c0 57.905 22.549 112.343 63.494 153.287 40.944 40.944 95.383 63.494 153.287 63.494s112.342-22.55 153.287-63.494c40.944-40.944 63.494-95.382 63.494-153.287-.001-57.904-22.55-112.342-63.494-153.286zM216.78 392.196c-96.725 0-175.416-78.691-175.416-175.416S120.056 41.364 216.781 41.364s175.415 78.691 175.415 175.416-78.691 175.416-175.416 175.416z"/><path d="M505.943 476.693L369.981 340.732c-8.077-8.077-21.172-8.077-29.249 0-8.076 8.077-8.076 21.172 0 29.249l135.961 135.961A20.616 20.616 0 0 0 491.318 512a20.616 20.616 0 0 0 14.625-6.058c8.076-8.077 8.076-21.172 0-29.249z"/></symbol><symbol viewBox="0 0 481.6 481.6" id="share" xmlns="http://www.w3.org/2000/svg"><path d="M381.6 309.4c-27.7 0-52.4 13.2-68.2 33.6l-132.3-73.9c3.1-8.9 4.8-18.5 4.8-28.4 0-10-1.7-19.5-4.9-28.5l132.2-73.8c15.7 20.5 40.5 33.8 68.3 33.8 47.4 0 86.1-38.6 86.1-86.1S429 0 381.5 0s-86.1 38.6-86.1 86.1c0 10 1.7 19.6 4.9 28.5l-132.1 73.8c-15.7-20.6-40.5-33.8-68.3-33.8-47.4 0-86.1 38.6-86.1 86.1s38.7 86.1 86.2 86.1c27.8 0 52.6-13.3 68.4-33.9l132.2 73.9c-3.2 9-5 18.7-5 28.7 0 47.4 38.6 86.1 86.1 86.1s86.1-38.6 86.1-86.1-38.7-86.1-86.2-86.1zm0-282.3c32.6 0 59.1 26.5 59.1 59.1s-26.5 59.1-59.1 59.1-59.1-26.5-59.1-59.1 26.6-59.1 59.1-59.1zM100 299.8c-32.6 0-59.1-26.5-59.1-59.1s26.5-59.1 59.1-59.1 59.1 26.5 59.1 59.1-26.6 59.1-59.1 59.1zm281.6 154.7c-32.6 0-59.1-26.5-59.1-59.1s26.5-59.1 59.1-59.1 59.1 26.5 59.1 59.1-26.5 59.1-59.1 59.1z"/></symbol><symbol viewBox="0 0 422.692 422.692" id="support" xmlns="http://www.w3.org/2000/svg"><path d="M271.786 289.626v-7.36c2.08-1.68 4.08-3.52 6-5.44a109.36 109.36 0 0 0 27.68-60.96 53.762 53.762 0 0 0 34.72-20.64c11.6-16.4 12.64-40 2.96-69.6a8.002 8.002 0 0 0-3.2-4.16l-4.4-2.96a108.478 108.478 0 0 0-25.92-73.04c-21.52-24.24-54.56-36.48-98.32-36.64-43.68 0-76.8 12.4-98.32 36.32a108.478 108.478 0 0 0-25.92 73.04l-4.4 2.96a8.002 8.002 0 0 0-3.2 4.16c-9.68 29.76-8.64 53.2 2.96 69.6a53.918 53.918 0 0 0 34.72 20.88 109.44 109.44 0 0 0 27.76 61.04 78.037 78.037 0 0 0 6 5.44v7.36c-30.64 5.92-152.96 34.64-150.88 116.24a8 8 0 0 0 8 8h406.64a8 8 0 0 0 8-8c2.08-81.6-120.24-110.32-150.88-116.24zm-159.44-91.68a34.72 34.72 0 0 1-16.96-12.4l.4.08c-8-11.68-8.72-29.36-1.6-52.72l5.84-3.92a8 8 0 0 0 3.52-7.44 94.558 94.558 0 0 1 21.76-65.84c18.08-20.48 47.12-30.72 86-30.88 38.88-.16 67.92 10.4 86.32 30.88a94.558 94.558 0 0 1 21.76 65.84 8 8 0 0 0 3.52 7.44l5.84 3.92c7.12 23.28 6.64 41.04-1.6 52.72a34.886 34.886 0 0 1-17.04 12.4 53.277 53.277 0 0 0 13.04-40 37.441 37.441 0 0 0-12.88-22.4c-3.44-80-59.52-88.96-83.68-88.96-5.114-.015-10.222.36-15.28 1.12a100.705 100.705 0 0 0-15.28-1.12c-24 0-80 8.8-83.68 88.96a37.44 37.44 0 0 0-13.04 22.32 53.2 53.2 0 0 0 13.04 40zm182-65.6a164.805 164.805 0 0 1-95.6-24 8 8 0 0 0-10.4 1.04c-16 17.2-45.2 21.2-59.28 22.08 4.32-56.56 38.56-68.88 67.36-68.88a77.331 77.331 0 0 1 13.68 1.12 7.982 7.982 0 0 0 3.2 0 77.71 77.71 0 0 1 13.68-1.12c28.56 0 62.96 12.64 66.96 69.68l.4.08zm-162.48 67.12l.32.08a7.997 7.997 0 0 0-2-5.36c-10.96-12.56-16-24-14.64-33.44a21.2 21.2 0 0 1 7.28-13.52c10.56 0 48-2 72-22.72a180.395 180.395 0 0 0 88.8 24c5.36 0 10.8 0 16.48-.88a21.118 21.118 0 0 1 7.2 13.12c1.36 9.28-3.68 20.88-14.64 33.44a7.997 7.997 0 0 0-2 5.36v4.16l-46.56 24.96c-9.24-8.748-23.823-8.349-32.571.891-8.748 9.24-8.349 23.823.891 32.571 9.24 8.748 23.823 8.349 32.571-.891a23.039 23.039 0 0 0 6.309-15.851c.036-.72.036-1.44 0-2.16l36.72-19.68a88.007 88.007 0 0 1-21.44 42.24 71.28 71.28 0 0 1-53.04 19.84h-4a71.44 71.44 0 0 1-52.96-19.76c-25.28-25.2-24.72-66-24.72-66.4zm103.44 45.92a7.12 7.12 0 1 1-14.24 0 7.12 7.12 0 0 1 14.24 0zm-32 152H16.266c6.32-60.08 104-85.2 134.56-91.68v14.32c0 18.16 22.08 32 52.48 34.32v43.04zm-36.48-77.36v-27.6a96.721 96.721 0 0 0 42.48 8.96h4a96.721 96.721 0 0 0 42.48-8.96v27.6c0 7.6-17.36 18.56-44.48 18.56s-44.48-10.96-44.48-18.56zm52.48 77.6v-43.36c30.4-2.08 52.48-16 52.48-34.32v-14c30.8 6.4 128 31.52 134.56 91.68h-187.04z"/></symbol><symbol viewBox="0 0 334.877 334.877" id="wallet" xmlns="http://www.w3.org/2000/svg"><path d="M333.196 155.999h-16.067V82.09c0-17.719-14.415-32.134-32.134-32.134h-21.761L240.965 9.917a19.28 19.28 0 0 0-26.222-7.488l-85.464 47.526H33.815c-17.719 0-32.134 14.415-32.134 32.134v220.653c0 17.719 14.415 32.134 32.134 32.134h251.18c17.719 0 32.134-14.415 32.134-32.134V237.94h16.067v-81.941zm-48.201-93.19c9.897 0 17.982 7.519 19.068 17.14h-24.152l-9.525-17.14h14.609zm-63.999-49.146c3.014-1.69 7.07-.508 8.734 2.494l35.476 63.786H101.798l119.198-66.28zm83.279 289.079c0 10.63-8.651 19.281-19.281 19.281H33.815c-10.63 0-19.281-8.651-19.281-19.281V82.09c0-10.63 8.651-19.281 19.281-19.281h72.353L75.345 79.95H37.832c-3.554 0-6.427 2.879-6.427 6.427s2.873 6.427 6.427 6.427h266.443v63.201h-46.999c-21.826 0-39.589 17.764-39.589 39.589v2.764c0 21.826 17.764 39.589 39.589 39.589h46.999v64.795zm16.067-77.655h-63.066c-14.743 0-26.736-11.992-26.736-26.736v-2.764c0-14.743 11.992-26.736 26.736-26.736h63.066v56.236zm-43.381-27.59c0 7.841-6.35 14.19-14.19 14.19-7.841 0-14.19-6.35-14.19-14.19s6.35-14.19 14.19-14.19c7.841-.001 14.19 6.355 14.19 14.19z"/></symbol></svg>