<?xml version="1.0" encoding="utf-8"?><svg xmlns="http://www.w3.org/2000/svg" xmlns:xlink="http://www.w3.org/1999/xlink"><symbol viewBox="0 0 512 512" id="case" xmlns="http://www.w3.org/2000/svg"><path d="M444.254 117.659H67.746C30.391 117.659 0 148.049 0 185.405v235.318c0 37.356 30.391 67.746 67.746 67.746h376.508c37.355 0 67.746-30.39 67.746-67.746V185.405c0-37.355-30.39-67.746-67.746-67.746zm26.382 303.063c0 14.547-11.835 26.381-26.381 26.381H67.746c-14.547 0-26.381-11.835-26.381-26.381V185.405c0-14.547 11.835-26.381 26.381-26.381h376.508c14.547 0 26.381 11.835 26.381 26.381v235.317z"/><path d="M303.064 23.532h-94.127c-37.355 0-67.746 30.391-67.746 67.746v376.508c0 11.423 9.26 20.682 20.682 20.682 11.422 0 20.682-9.259 20.682-20.682V91.278c0-14.547 11.835-26.381 26.381-26.381h94.127c14.547 0 26.381 11.835 26.381 26.381v376.508c0 11.423 9.259 20.682 20.682 20.682 11.423 0 20.682-9.259 20.682-20.682V91.278c.001-37.355-30.389-67.746-67.744-67.746z"/></symbol><symbol viewBox="0 0 512 512" id="menu" xmlns="http://www.w3.org/2000/svg"><path d="M491.318 235.318H20.682C9.26 235.318 0 244.577 0 256s9.26 20.682 20.682 20.682h470.636c11.423 0 20.682-9.259 20.682-20.682 0-11.422-9.259-20.682-20.682-20.682zm0-156.879H20.682C9.26 78.439 0 87.699 0 99.121c0 11.422 9.26 20.682 20.682 20.682h470.636c11.423 0 20.682-9.26 20.682-20.682 0-11.422-9.259-20.682-20.682-20.682zm0 313.758H20.682C9.26 392.197 0 401.456 0 412.879s9.26 20.682 20.682 20.682h470.636c11.423 0 20.682-9.259 20.682-20.682s-9.259-20.682-20.682-20.682z"/></symbol><symbol viewBox="0 0 512 512" id="search" xmlns="http://www.w3.org/2000/svg"><path d="M370.068 63.494C329.123 22.549 274.686 0 216.781 0S104.438 22.549 63.494 63.494C22.549 104.438 0 158.876 0 216.78c0 57.905 22.549 112.343 63.494 153.287 40.944 40.944 95.383 63.494 153.287 63.494s112.342-22.55 153.287-63.494c40.944-40.944 63.494-95.382 63.494-153.287-.001-57.904-22.55-112.342-63.494-153.286zM216.78 392.196c-96.725 0-175.416-78.691-175.416-175.416S120.056 41.364 216.781 41.364s175.415 78.691 175.415 175.416-78.691 175.416-175.416 175.416z"/><path d="M505.943 476.693L369.981 340.732c-8.077-8.077-21.172-8.077-29.249 0-8.076 8.077-8.076 21.172 0 29.249l135.961 135.961A20.616 20.616 0 0 0 491.318 512a20.616 20.616 0 0 0 14.625-6.058c8.076-8.077 8.076-21.172 0-29.249z"/></symbol><symbol viewBox="0 0 481.6 481.6" id="share" xmlns="http://www.w3.org/2000/svg"><path d="M381.6 309.4c-27.7 0-52.4 13.2-68.2 33.6l-132.3-73.9c3.1-8.9 4.8-18.5 4.8-28.4 0-10-1.7-19.5-4.9-28.5l132.2-73.8c15.7 20.5 40.5 33.8 68.3 33.8 47.4 0 86.1-38.6 86.1-86.1S429 0 381.5 0s-86.1 38.6-86.1 86.1c0 10 1.7 19.6 4.9 28.5l-132.1 73.8c-15.7-20.6-40.5-33.8-68.3-33.8-47.4 0-86.1 38.6-86.1 86.1s38.7 86.1 86.2 86.1c27.8 0 52.6-13.3 68.4-33.9l132.2 73.9c-3.2 9-5 18.7-5 28.7 0 47.4 38.6 86.1 86.1 86.1s86.1-38.6 86.1-86.1-38.7-86.1-86.2-86.1zm0-282.3c32.6 0 59.1 26.5 59.1 59.1s-26.5 59.1-59.1 59.1-59.1-26.5-59.1-59.1 26.6-59.1 59.1-59.1zM100 299.8c-32.6 0-59.1-26.5-59.1-59.1s26.5-59.1 59.1-59.1 59.1 26.5 59.1 59.1-26.6 59.1-59.1 59.1zm281.6 154.7c-32.6 0-59.1-26.5-59.1-59.1s26.5-59.1 59.1-59.1 59.1 26.5 59.1 59.1-26.5 59.1-59.1 59.1z"/></symbol></svg>